{
	"asset":{
		"generator":"Khronos glTF Blender I/O v4.2.69",
		"version":"2.0"
	},
	"extensionsUsed":[
		"KHR_materials_specular",
		"KHR_lights_punctual"
	],
	"extensionsRequired":[
		"KHR_lights_punctual"
	],
	"extensions":{
		"KHR_lights_punctual":{
			"lights":[
				{
					"color":[
						1,
						0.937483549118042,
						0.37014153599739075
					],
					"intensity":6.829999847337604,
					"type":"directional",
					"name":"Sun.001"
				},
				{
					"color":[
						1,
						0.743798017501831,
						0
					],
					"intensity":543.5141306588226,
					"spot":{
						"innerConeAngle":0.23536015616188521,
						"outerConeAngle":0.2993239760398865
					},
					"type":"spot",
					"name":"Spot"
				},
				{
					"color":[
						1,
						0,
						0.016670329496264458
					],
					"intensity":543.5141306588226,
					"spot":{
						"innerConeAngle":0.3337942263919169,
						"outerConeAngle":0.39269909262657166
					},
					"type":"spot",
					"name":"Spot.001"
				},
				{
					"color":[
						0,
						1,
						0.0011555816745385528
					],
					"intensity":543.5141306588226,
					"spot":{
						"innerConeAngle":0.3337942263919169,
						"outerConeAngle":0.39269909262657166
					},
					"type":"spot",
					"name":"Spot.002"
				},
				{
					"color":[
						1,
						0.9946850538253784,
						0.40564417839050293
					],
					"intensity":3.414999923668802,
					"type":"directional",
					"name":"Sun.002"
				}
			]
		}
	},
	"scene":0,
	"scenes":[
		{
			"name":"Scene",
			"nodes":[
				1,
				3,
				5,
				6,
				7,
				10,
				11,
				12,
				13,
				14,
				15,
				16,
				17,
				18,
				19,
				20,
				21,
				24
			]
		}
	],
	"nodes":[
		{
			"name":"GLTF_SceneRootNode.001",
			"rotation":[
				0.70710688829422,
				0,
				0,
				0.7071066498756409
			]
		},
		{
			"children":[
				0
			],
			"name":"root.001"
		},
		{
			"name":"GLTF_SceneRootNode.002",
			"rotation":[
				0.70710688829422,
				0,
				0,
				0.7071066498756409
			]
		},
		{
			"children":[
				2
			],
			"name":"root.002"
		},
		{
			"name":"GLTF_SceneRootNode.003",
			"rotation":[
				0.70710688829422,
				0,
				0,
				0.7071066498756409
			]
		},
		{
			"children":[
				4
			],
			"name":"root.003"
		},
		{
			"mesh":0,
			"name":"Cube",
			"scale":[
				1,
				2,
				1
			],
			"translation":[
				0,
				0,
				5.972804069519043
			]
		},
		{
			"name":"group723800643",
			"scale":[
				10.891427040100098,
				10.891427040100098,
				10.891427040100098
			],
			"translation":[
				-68.5364990234375,
				85.62735748291016,
				0
			]
		},
		{
			"name":"Example_Fence_sections__not_for_use_.001"
		},
		{
			"children":[
				8
			],
			"name":"RootNode.007"
		},
		{
			"children":[
				9
			],
			"name":"JunkYardFence.fbx.005",
			"rotation":[
				0.70710688829422,
				0,
				0,
				0.7071066498756409
			],
			"scale":[
				0.009999999776482582,
				0.010000000707805157,
				0.010000000707805157
			]
		},
		{
			"mesh":1,
			"name":"Example_Fence_sections__not_for_use__T_graffiti6_0.001",
			"scale":[
				0.0204770565032959,
				0.020477060228586197,
				0.020477060228586197
			],
			"translation":[
				7.7511162757873535,
				2.6379942893981934,
				6.355284214019775
			]
		},
		{
			"mesh":2,
			"name":"Example_Fence_sections__not_for_use__T_graffiti4_0.001",
			"rotation":[
				0.042424578219652176,
				-0.16962048411369324,
				0.05827240273356438,
				0.9828699827194214
			],
			"scale":[
				0.0204770565032959,
				0.020477060228586197,
				0.020477060228586197
			],
			"translation":[
				-12.705263137817383,
				1.2676903009414673,
				6.503537178039551
			]
		},
		{
			"mesh":3,
			"name":"Example_Fence_sections__not_for_use__T_graffiti3_0.001",
			"rotation":[
				0,
				-0.45941171050071716,
				0,
				0.8882234692573547
			],
			"scale":[
				0.0204770565032959,
				0.020477060228586197,
				0.020477060228586197
			],
			"translation":[
				-22.966381072998047,
				1.0644261837005615,
				6.355125427246094
			]
		},
		{
			"mesh":4,
			"name":"Example_Fence_sections__not_for_use__T_graffiti2_0.001",
			"rotation":[
				0,
				0,
				0.05830054730176926,
				0.9982991218566895
			],
			"scale":[
				0.0204770565032959,
				0.020477060228586197,
				0.020477060228586197
			],
			"translation":[
				17.52065658569336,
				2.6381423473358154,
				6.355125427246094
			]
		},
		{
			"mesh":5,
			"name":"Example_Fence_sections__not_for_use__T_graffiti0_0.001",
			"rotation":[
				0.00459624920040369,
				0,
				0,
				0.9999894499778748
			],
			"scale":[
				0.0204770565032959,
				0.020477058365941048,
				0.020477058365941048
			],
			"translation":[
				-25.099685668945312,
				0.984404444694519,
				-0.897132396697998
			]
		},
		{
			"mesh":6,
			"name":"Example_Fence_sections__not_for_use__T_graffiti2_0.002",
			"rotation":[
				0,
				0,
				0.05830054730176926,
				0.9982991218566895
			],
			"scale":[
				0.0204770565032959,
				0.020477060228586197,
				0.020477060228586197
			],
			"translation":[
				27.94646453857422,
				2.6381423473358154,
				6.355125427246094
			]
		},
		{
			"extensions":{
				"KHR_lights_punctual":{
					"light":0
				}
			},
			"name":"Sun",
			"rotation":[
				-0.3335488736629486,
				0,
				0,
				0.9427328109741211
			],
			"translation":[
				-6.8787522315979,
				209.46522521972656,
				564.8704833984375
			]
		},
		{
			"extensions":{
				"KHR_lights_punctual":{
					"light":1
				}
			},
			"name":"Spot",
			"rotation":[
				-0.24578262865543365,
				0,
				0,
				0.9693250060081482
			],
			"translation":[
				0.11397743225097656,
				7.927645683288574,
				12.529848098754883
			]
		},
		{
			"extensions":{
				"KHR_lights_punctual":{
					"light":2
				}
			},
			"name":"Spot.001",
			"rotation":[
				-0.7071068286895752,
				0,
				0,
				0.7071068286895752
			],
			"translation":[
				1.0977540016174316,
				7.927645683288574,
				15.830665588378906
			]
		},
		{
			"extensions":{
				"KHR_lights_punctual":{
					"light":3
				}
			},
			"name":"Spot.002",
			"rotation":[
				-0.5093335509300232,
				0,
				0,
				0.8605692386627197
			],
			"translation":[
				10.671371459960938,
				7.927645683288574,
				9.019237518310547
			]
		},
		{
			"extensions":{
				"KHR_lights_punctual":{
					"light":4
				}
			},
			"name":"Sun2",
			"rotation":[
				-0.8739089965820312,
				0,
				0,
				0.4860895872116089
			],
			"translation":[
				-6.8787522315979,
				209.46522521972656,
				-635.6259765625
			]
		},
		{
			"mesh":7,
			"name":"Object_2",
			"translation":[
				-830.5242919921875,
				-416.65667724609375,
				-267.3608093261719
			]
		},
		{
			"children":[
				22
			],
			"name":"8842eed260aa4dad81773d51ca9066fb.obj.cleaner"
		},
		{
			"children":[
				23
			],
			"name":"Sketchfab_model.010",
			"rotation":[
				-0.70710688829422,
				0,
				0,
				0.7071066498756409
			],
			"translation":[
				235.22293090820312,
				251.38087463378906,
				0
			]
		}
	],
	"materials":[
		{
			"doubleSided":true,
			"name":"T_graffiti6.001",
			"pbrMetallicRoughness":{
				"baseColorTexture":{
					"index":0
				},
				"metallicFactor":0,
				"roughnessFactor":0.6000000238418579
			}
		},
		{
			"doubleSided":true,
			"name":"T_graffiti4.001",
			"pbrMetallicRoughness":{
				"baseColorTexture":{
					"index":1
				},
				"metallicFactor":0,
				"roughnessFactor":0.6000000238418579
			}
		},
		{
			"doubleSided":true,
			"name":"T_graffiti3.001",
			"pbrMetallicRoughness":{
				"baseColorTexture":{
					"index":2
				},
				"metallicFactor":0,
				"roughnessFactor":0.6000000238418579
			}
		},
		{
			"doubleSided":true,
			"name":"T_graffiti2.001",
			"pbrMetallicRoughness":{
				"baseColorTexture":{
					"index":3
				},
				"metallicFactor":0,
				"roughnessFactor":0.6000000238418579
			}
		},
		{
			"doubleSided":true,
			"extensions":{
				"KHR_materials_specular":{
					"specularFactor":0.3398105502128601
				}
			},
			"name":"T_graffiti0.001",
			"pbrMetallicRoughness":{
				"baseColorTexture":{
					"index":4
				},
				"metallicFactor":0,
				"roughnessFactor":0.6140971183776855
			}
		},
		{
			"doubleSided":true,
			"name":"T_graffiti2.002",
			"pbrMetallicRoughness":{
				"baseColorTexture":{
					"index":5
				},
				"metallicFactor":0,
				"roughnessFactor":0.6000000238418579
			}
		},
		{
			"doubleSided":true,
			"name":"diffuse_1SG",
			"normalTexture":{
				"index":6
			},
			"pbrMetallicRoughness":{
				"baseColorTexture":{
					"index":7
				},
				"metallicFactor":0,
				"roughnessFactor":0.6000000238418579
			}
		}
	],
	"meshes":[
		{
			"name":"Cube",
			"primitives":[
				{
					"attributes":{
						"POSITION":0,
						"NORMAL":1,
						"TEXCOORD_0":2
					},
					"indices":3
				}
			]
		},
		{
			"name":"Example_Fence_sections__not_for_use__T_graffiti6_0.001",
			"primitives":[
				{
					"attributes":{
						"POSITION":4,
						"NORMAL":5,
						"TEXCOORD_0":6
					},
					"indices":7,
					"material":0
				}
			]
		},
		{
			"name":"Example_Fence_sections__not_for_use__T_graffiti4_0.001",
			"primitives":[
				{
					"attributes":{
						"POSITION":8,
						"NORMAL":9,
						"TEXCOORD_0":10
					},
					"indices":11,
					"material":1
				}
			]
		},
		{
			"name":"Example_Fence_sections__not_for_use__T_graffiti3_0.001",
			"primitives":[
				{
					"attributes":{
						"POSITION":12,
						"NORMAL":13,
						"TEXCOORD_0":14
					},
					"indices":15,
					"material":2
				}
			]
		},
		{
			"name":"Example_Fence_sections__not_for_use__T_graffiti2_0.001",
			"primitives":[
				{
					"attributes":{
						"POSITION":16,
						"NORMAL":17,
						"TEXCOORD_0":18
					},
					"indices":15,
					"material":3
				}
			]
		},
		{
			"name":"Example_Fence_sections__not_for_use__T_graffiti0_0.001",
			"primitives":[
				{
					"attributes":{
						"POSITION":19,
						"NORMAL":20,
						"TEXCOORD_0":21
					},
					"indices":15,
					"material":4
				}
			]
		},
		{
			"name":"Example_Fence_sections__not_for_use__T_graffiti2_0.002",
			"primitives":[
				{
					"attributes":{
						"POSITION":22,
						"NORMAL":23,
						"TEXCOORD_0":24
					},
					"indices":15,
					"material":5
				}
			]
		},
		{
			"name":"Object_0.001",
			"primitives":[
				{
					"attributes":{
						"POSITION":25,
						"NORMAL":26,
						"TEXCOORD_0":27
					},
					"indices":28,
					"material":6
				}
			]
		}
	],
	"textures":[
		{
			"sampler":0,
			"source":0
		},
		{
			"sampler":0,
			"source":1
		},
		{
			"sampler":0,
			"source":2
		},
		{
			"sampler":0,
			"source":3
		},
		{
			"sampler":0,
			"source":4
		},
		{
			"sampler":0,
			"source":3
		},
		{
			"sampler":0,
			"source":5
		},
		{
			"sampler":0,
			"source":6
		}
	],
	"images":[
		{
			"mimeType":"image/png",
			"name":"T_graffiti6_baseColor",
			"uri":"textures/T_graffiti6_baseColor.png"
		},
		{
			"mimeType":"image/png",
			"name":"T_graffiti4_baseColor",
			"uri":"textures/T_graffiti4_baseColor.png"
		},
		{
			"mimeType":"image/png",
			"name":"T_graffiti3_baseColor",
			"uri":"textures/T_graffiti3_baseColor.png"
		},
		{
			"mimeType":"image/png",
			"name":"T_graffiti2_baseColor",
			"uri":"textures/T_graffiti2_baseColor.png"
		},
		{
			"mimeType":"image/png",
			"name":"T_graffiti0_baseColor",
			"uri":"textures/T_graffiti0_baseColor.png"
		},
		{
			"mimeType":"image/png",
			"name":"diffuse_1SG_normal",
			"uri":"textures/diffuse_1SG_normal.png"
		},
		{
			"mimeType":"image/jpeg",
			"name":"diffuse_1SG_baseColor",
			"uri":"textures/diffuse_1SG_baseColor.jpg"
		}
	],
	"accessors":[
		{
			"bufferView":0,
			"componentType":5126,
			"count":24,
			"max":[
				1,
				2,
				1
			],
			"min":[
				-1,
				0,
				-1
			],
			"type":"VEC3"
		},
		{
			"bufferView":1,
			"componentType":5126,
			"count":24,
			"type":"VEC3"
		},
		{
			"bufferView":2,
			"componentType":5126,
			"count":24,
			"type":"VEC2"
		},
		{
			"bufferView":3,
			"componentType":5123,
			"count":36,
			"type":"SCALAR"
		},
		{
			"bufferView":4,
			"componentType":5126,
			"count":268,
			"max":[
				192.22332763671875,
				127.92826080322266,
				2.069904088973999
			],
			"min":[
				-193.86810302734375,
				-128.82681274414062,
				-2.624309778213501
			],
			"type":"VEC3"
		},
		{
			"bufferView":5,
			"componentType":5126,
			"count":268,
			"type":"VEC3"
		},
		{
			"bufferView":6,
			"componentType":5126,
			"count":268,
			"type":"VEC2"
		},
		{
			"bufferView":7,
			"componentType":5123,
			"count":600,
			"type":"SCALAR"
		},
		{
			"bufferView":8,
			"componentType":5126,
			"count":948,
			"max":[
				192.2083740234375,
				127.92799377441406,
				3.04864501953125
			],
			"min":[
				-193.8831787109375,
				-128.8270721435547,
				-3.59332275390625
			],
			"type":"VEC3"
		},
		{
			"bufferView":9,
			"componentType":5126,
			"count":948,
			"type":"VEC3"
		},
		{
			"bufferView":10,
			"componentType":5126,
			"count":948,
			"type":"VEC2"
		},
		{
			"bufferView":11,
			"componentType":5123,
			"count":2412,
			"type":"SCALAR"
		},
		{
			"bufferView":12,
			"componentType":5126,
			"count":272,
			"max":[
				191.3167724609375,
				127.93675231933594,
				2.07763671875
			],
			"min":[
				-194.7747802734375,
				-128.8183135986328,
				-2.6165771484375
			],
			"type":"VEC3"
		},
		{
			"bufferView":13,
			"componentType":5126,
			"count":272,
			"type":"VEC3"
		},
		{
			"bufferView":14,
			"componentType":5126,
			"count":272,
			"type":"VEC2"
		},
		{
			"bufferView":15,
			"componentType":5123,
			"count":606,
			"type":"SCALAR"
		},
		{
			"bufferView":16,
			"componentType":5126,
			"count":272,
			"max":[
				193.12637329101562,
				127.92102813720703,
				2.0776445865631104
			],
			"min":[
				-192.96505737304688,
				-128.8340301513672,
				-2.6165692806243896
			],
			"type":"VEC3"
		},
		{
			"bufferView":17,
			"componentType":5126,
			"count":272,
			"type":"VEC3"
		},
		{
			"bufferView":18,
			"componentType":5126,
			"count":272,
			"type":"VEC2"
		},
		{
			"bufferView":19,
			"componentType":5126,
			"count":272,
			"max":[
				2.616943359375,
				127.92105102539062,
				193.126708984375
			],
			"min":[
				-2.077392578125,
				-128.83399963378906,
				-192.96484375
			],
			"type":"VEC3"
		},
		{
			"bufferView":20,
			"componentType":5126,
			"count":272,
			"type":"VEC3"
		},
		{
			"bufferView":21,
			"componentType":5126,
			"count":272,
			"type":"VEC2"
		},
		{
			"bufferView":22,
			"componentType":5126,
			"count":272,
			"max":[
				193.12637329101562,
				127.92102813720703,
				2.0776445865631104
			],
			"min":[
				-192.96505737304688,
				-128.8340301513672,
				-2.6165692806243896
			],
			"type":"VEC3"
		},
		{
			"bufferView":23,
			"componentType":5126,
			"count":272,
			"type":"VEC3"
		},
		{
			"bufferView":24,
			"componentType":5126,
			"count":272,
			"type":"VEC2"
		},
		{
			"bufferView":25,
			"componentType":5126,
			"count":7661,
			"max":[
				1000,
				1000,
				182.72299194335938
			],
			"min":[
				0,
				0,
				5.434000015258789
			],
			"type":"VEC3"
		},
		{
			"bufferView":26,
			"componentType":5126,
			"count":7661,
			"type":"VEC3"
		},
		{
			"bufferView":27,
			"componentType":5126,
			"count":7661,
			"type":"VEC2"
		},
		{
			"bufferView":28,
			"componentType":5123,
			"count":43800,
			"type":"SCALAR"
		}
	],
	"bufferViews":[
		{
			"buffer":0,
			"byteLength":288,
			"byteOffset":0,
			"target":34962
		},
		{
			"buffer":0,
			"byteLength":288,
			"byteOffset":288,
			"target":34962
		},
		{
			"buffer":0,
			"byteLength":192,
			"byteOffset":576,
			"target":34962
		},
		{
			"buffer":0,
			"byteLength":72,
			"byteOffset":768,
			"target":34963
		},
		{
			"buffer":0,
			"byteLength":3216,
			"byteOffset":840,
			"target":34962
		},
		{
			"buffer":0,
			"byteLength":3216,
			"byteOffset":4056,
			"target":34962
		},
		{
			"buffer":0,
			"byteLength":2144,
			"byteOffset":7272,
			"target":34962
		},
		{
			"buffer":0,
			"byteLength":1200,
			"byteOffset":9416,
			"target":34963
		},
		{
			"buffer":0,
			"byteLength":11376,
			"byteOffset":10616,
			"target":34962
		},
		{
			"buffer":0,
			"byteLength":11376,
			"byteOffset":21992,
			"target":34962
		},
		{
			"buffer":0,
			"byteLength":7584,
			"byteOffset":33368,
			"target":34962
		},
		{
			"buffer":0,
			"byteLength":4824,
			"byteOffset":40952,
			"target":34963
		},
		{
			"buffer":0,
			"byteLength":3264,
			"byteOffset":45776,
			"target":34962
		},
		{
			"buffer":0,
			"byteLength":3264,
			"byteOffset":49040,
			"target":34962
		},
		{
			"buffer":0,
			"byteLength":2176,
			"byteOffset":52304,
			"target":34962
		},
		{
			"buffer":0,
			"byteLength":1212,
			"byteOffset":54480,
			"target":34963
		},
		{
			"buffer":0,
			"byteLength":3264,
			"byteOffset":55692,
			"target":34962
		},
		{
			"buffer":0,
			"byteLength":3264,
			"byteOffset":58956,
			"target":34962
		},
		{
			"buffer":0,
			"byteLength":2176,
			"byteOffset":62220,
			"target":34962
		},
		{
			"buffer":0,
			"byteLength":3264,
			"byteOffset":64396,
			"target":34962
		},
		{
			"buffer":0,
			"byteLength":3264,
			"byteOffset":67660,
			"target":34962
		},
		{
			"buffer":0,
			"byteLength":2176,
			"byteOffset":70924,
			"target":34962
		},
		{
			"buffer":0,
			"byteLength":3264,
			"byteOffset":73100,
			"target":34962
		},
		{
			"buffer":0,
			"byteLength":3264,
			"byteOffset":76364,
			"target":34962
		},
		{
			"buffer":0,
			"byteLength":2176,
			"byteOffset":79628,
			"target":34962
		},
		{
			"buffer":0,
			"byteLength":91932,
			"byteOffset":81804,
			"target":34962
		},
		{
			"buffer":0,
			"byteLength":91932,
			"byteOffset":173736,
			"target":34962
		},
		{
			"buffer":0,
			"byteLength":61288,
			"byteOffset":265668,
			"target":34962
		},
		{
			"buffer":0,
			"byteLength":87600,
			"byteOffset":326956,
			"target":34963
		}
	],
	"samplers":[
		{
			"magFilter":9729,
			"minFilter":9987
		}
	],
	"buffers":[
		{
			"byteLength":414556,
			"uri":"scene.bin"
		}
	]
}
