{
	"asset":{
		"generator":"Khronos glTF Blender I/O v4.2.69",
		"version":"2.0"
	},
	"extensionsUsed":[
		"KHR_materials_specular",
		"KHR_materials_ior",
		"KHR_lights_punctual"
	],
	"extensionsRequired":[
		"KHR_lights_punctual"
	],
	"extensions":{
		"KHR_lights_punctual":{
			"lights":[
				{
					"color":[
						1,
						0.937483549118042,
						0.37014153599739075
					],
					"intensity":6.829999847337604,
					"type":"directional",
					"name":"Sun.001"
				},
				{
					"color":[
						1,
						0.743798017501831,
						0
					],
					"intensity":543.5141306588226,
					"spot":{
						"innerConeAngle":0.23536015616188521,
						"outerConeAngle":0.2993239760398865
					},
					"type":"spot",
					"name":"Spot"
				},
				{
					"color":[
						1,
						0,
						0.016670329496264458
					],
					"intensity":543.5141306588226,
					"spot":{
						"innerConeAngle":0.3337942263919169,
						"outerConeAngle":0.39269909262657166
					},
					"type":"spot",
					"name":"Spot.001"
				},
				{
					"color":[
						0,
						1,
						0.0011555816745385528
					],
					"intensity":543.5141306588226,
					"spot":{
						"innerConeAngle":0.3337942263919169,
						"outerConeAngle":0.39269909262657166
					},
					"type":"spot",
					"name":"Spot.002"
				},
				{
					"color":[
						1,
						0.9946850538253784,
						0.40564417839050293
					],
					"intensity":3.414999923668802,
					"type":"directional",
					"name":"Sun.002"
				},
				{
					"color":[
						1,
						1,
						1
					],
					"intensity":54351.41306588226,
					"type":"point",
					"name":"Light"
				}
			]
		}
	},
	"scene":0,
	"scenes":[
		{
			"name":"Scene",
			"nodes":[
				0,
				2,
				4,
				6,
				7,
				10,
				11,
				12,
				13,
				14,
				15,
				16,
				17,
				18,
				19,
				20,
				21,
				24,
				25
			]
		}
	],
	"nodes":[
		{
			"mesh":0,
			"name":"Barbwire_Straight_Short1_Fence_Barbwire_shader_0"
		},
		{
			"name":"GLTF_SceneRootNode.001",
			"rotation":[
				0.70710688829422,
				0,
				0,
				0.7071066498756409
			]
		},
		{
			"children":[
				1
			],
			"name":"root.001"
		},
		{
			"name":"GLTF_SceneRootNode.002",
			"rotation":[
				0.70710688829422,
				0,
				0,
				0.7071066498756409
			]
		},
		{
			"children":[
				3
			],
			"name":"root.002"
		},
		{
			"name":"GLTF_SceneRootNode.003",
			"rotation":[
				0.70710688829422,
				0,
				0,
				0.7071066498756409
			]
		},
		{
			"children":[
				5
			],
			"name":"root.003"
		},
		{
			"name":"group723800643",
			"scale":[
				10.891427040100098,
				10.891427040100098,
				10.891427040100098
			],
			"translation":[
				-68.5364990234375,
				85.62735748291016,
				0
			]
		},
		{
			"name":"Example_Fence_sections__not_for_use_.001"
		},
		{
			"children":[
				8
			],
			"name":"RootNode.007"
		},
		{
			"children":[
				9
			],
			"name":"JunkYardFence.fbx.005",
			"rotation":[
				0.70710688829422,
				0,
				0,
				0.7071066498756409
			],
			"scale":[
				0.009999999776482582,
				0.009999999776482582,
				0.009999999776482582
			]
		},
		{
			"mesh":1,
			"name":"Example_Fence_sections__not_for_use__T_graffiti6_0.001",
			"scale":[
				0.0204770565032959,
				0.020477060228586197,
				0.020477060228586197
			],
			"translation":[
				7.7511162757873535,
				2.6379942893981934,
				6.355284214019775
			]
		},
		{
			"mesh":2,
			"name":"Example_Fence_sections__not_for_use__T_graffiti4_0.001",
			"rotation":[
				0.042424578219652176,
				-0.16962046921253204,
				0.05827239900827408,
				0.9828699827194214
			],
			"scale":[
				0.0204770565032959,
				0.020477060228586197,
				0.020477060228586197
			],
			"translation":[
				-12.705263137817383,
				1.2676903009414673,
				6.503537178039551
			]
		},
		{
			"mesh":3,
			"name":"Example_Fence_sections__not_for_use__T_graffiti3_0.001",
			"rotation":[
				0,
				-0.45941171050071716,
				0,
				0.8882234692573547
			],
			"scale":[
				0.0204770565032959,
				0.020477060228586197,
				0.020477060228586197
			],
			"translation":[
				-22.966381072998047,
				1.0644261837005615,
				6.355125427246094
			]
		},
		{
			"mesh":4,
			"name":"Example_Fence_sections__not_for_use__T_graffiti2_0.001",
			"rotation":[
				0,
				0,
				0.05830054357647896,
				0.9982991218566895
			],
			"scale":[
				0.0204770565032959,
				0.020477060228586197,
				0.020477060228586197
			],
			"translation":[
				17.52065658569336,
				2.6381423473358154,
				6.355125427246094
			]
		},
		{
			"mesh":5,
			"name":"Example_Fence_sections__not_for_use__T_graffiti0_0.001",
			"rotation":[
				0.004596250131726265,
				0,
				0,
				0.9999894499778748
			],
			"scale":[
				0.0204770565032959,
				0.0204770565032959,
				0.0204770565032959
			],
			"translation":[
				-25.099685668945312,
				0.984404444694519,
				-0.897132396697998
			]
		},
		{
			"mesh":6,
			"name":"Example_Fence_sections__not_for_use__T_graffiti2_0.002",
			"rotation":[
				0,
				0,
				0.05830054357647896,
				0.9982991218566895
			],
			"scale":[
				0.0204770565032959,
				0.020477060228586197,
				0.020477060228586197
			],
			"translation":[
				27.94646453857422,
				2.6381423473358154,
				6.355125427246094
			]
		},
		{
			"extensions":{
				"KHR_lights_punctual":{
					"light":0
				}
			},
			"name":"Sun",
			"rotation":[
				-0.333548903465271,
				0,
				0,
				0.9427328109741211
			],
			"translation":[
				-6.8787522315979,
				209.46522521972656,
				564.8704833984375
			]
		},
		{
			"extensions":{
				"KHR_lights_punctual":{
					"light":1
				}
			},
			"name":"Spot",
			"rotation":[
				-0.24578261375427246,
				0,
				0,
				0.9693250060081482
			],
			"translation":[
				-13.129411697387695,
				6.939902305603027,
				12.529848098754883
			]
		},
		{
			"extensions":{
				"KHR_lights_punctual":{
					"light":2
				}
			},
			"name":"Spot.001",
			"rotation":[
				-0.7071068286895752,
				0,
				0,
				0.7071068286895752
			],
			"translation":[
				1.0977540016174316,
				7.927645683288574,
				15.830665588378906
			]
		},
		{
			"extensions":{
				"KHR_lights_punctual":{
					"light":3
				}
			},
			"name":"Spot.002",
			"rotation":[
				-0.5093335509300232,
				0,
				0,
				0.8605692386627197
			],
			"translation":[
				10.671371459960938,
				7.927645683288574,
				9.019237518310547
			]
		},
		{
			"extensions":{
				"KHR_lights_punctual":{
					"light":4
				}
			},
			"name":"Sun2",
			"rotation":[
				-0.8739089965820312,
				0,
				0,
				0.4860895872116089
			],
			"translation":[
				-6.8787522315979,
				209.46522521972656,
				-635.6259765625
			]
		},
		{
			"mesh":7,
			"name":"Object_2",
			"translation":[
				-830.5242919921875,
				-416.6567077636719,
				-267.3608093261719
			]
		},
		{
			"children":[
				22
			],
			"name":"8842eed260aa4dad81773d51ca9066fb.obj.cleaner",
			"translation":[
				0,
				0,
				1.52587890625e-05
			]
		},
		{
			"children":[
				23
			],
			"name":"Sketchfab_model.010",
			"rotation":[
				-0.70710688829422,
				0,
				0,
				0.7071066498756409
			],
			"translation":[
				235.22293090820312,
				251.38087463378906,
				0
			]
		},
		{
			"extensions":{
				"KHR_lights_punctual":{
					"light":5
				}
			},
			"name":"Light",
			"rotation":[
				-0.28416627645492554,
				0.7269423007965088,
				0.34203392267227173,
				0.5232754945755005
			],
			"translation":[
				4.076245307922363,
				5.903861999511719,
				-1.0054539442062378
			]
		}
	],
	"materials":[
		{
			"alphaMode":"BLEND",
			"doubleSided":true,
			"extensions":{
				"KHR_materials_specular":{
					"specularColorFactor":[
						0.05000000074505806,
						0.05000000074505806,
						0.05000000074505806
					]
				},
				"KHR_materials_ior":{
					"ior":1000
				}
			},
			"name":"Fence_Barbwire_shader",
			"pbrMetallicRoughness":{
				"baseColorTexture":{
					"index":0
				},
				"metallicFactor":0,
				"roughnessFactor":0.6000000238418579
			}
		},
		{
			"doubleSided":true,
			"name":"T_graffiti6.001",
			"pbrMetallicRoughness":{
				"baseColorTexture":{
					"index":1
				},
				"metallicFactor":0,
				"roughnessFactor":0.6000000238418579
			}
		},
		{
			"doubleSided":true,
			"name":"T_graffiti4.001",
			"pbrMetallicRoughness":{
				"baseColorTexture":{
					"index":2
				},
				"metallicFactor":0,
				"roughnessFactor":0.6000000238418579
			}
		},
		{
			"doubleSided":true,
			"name":"T_graffiti3.001",
			"pbrMetallicRoughness":{
				"baseColorTexture":{
					"index":3
				},
				"metallicFactor":0,
				"roughnessFactor":0.6000000238418579
			}
		},
		{
			"doubleSided":true,
			"name":"T_graffiti2.001",
			"pbrMetallicRoughness":{
				"baseColorTexture":{
					"index":4
				},
				"metallicFactor":0,
				"roughnessFactor":0.6000000238418579
			}
		},
		{
			"doubleSided":true,
			"extensions":{
				"KHR_materials_specular":{
					"specularFactor":0.3398105502128601
				}
			},
			"name":"T_graffiti0.001",
			"pbrMetallicRoughness":{
				"baseColorTexture":{
					"index":5
				},
				"metallicFactor":0,
				"roughnessFactor":0.6140971183776855
			}
		},
		{
			"doubleSided":true,
			"name":"T_graffiti2.002",
			"pbrMetallicRoughness":{
				"baseColorTexture":{
					"index":6
				},
				"metallicFactor":0,
				"roughnessFactor":0.6000000238418579
			}
		},
		{
			"doubleSided":true,
			"name":"diffuse_1SG",
			"normalTexture":{
				"index":7
			},
			"pbrMetallicRoughness":{
				"baseColorTexture":{
					"index":8
				},
				"metallicFactor":0,
				"roughnessFactor":0.6000000238418579
			}
		}
	],
	"meshes":[
		{
			"name":"Barbwire_Straight_Short1_Fence_Barbwire_shader_0",
			"primitives":[
				{
					"attributes":{
						"POSITION":0,
						"NORMAL":1,
						"TEXCOORD_0":2,
						"TEXCOORD_1":3
					},
					"indices":4,
					"material":0
				}
			]
		},
		{
			"name":"Example_Fence_sections__not_for_use__T_graffiti6_0.001",
			"primitives":[
				{
					"attributes":{
						"POSITION":5,
						"NORMAL":6,
						"TEXCOORD_0":7
					},
					"indices":8,
					"material":1
				}
			]
		},
		{
			"name":"Example_Fence_sections__not_for_use__T_graffiti4_0.001",
			"primitives":[
				{
					"attributes":{
						"POSITION":9,
						"NORMAL":10,
						"TEXCOORD_0":11
					},
					"indices":12,
					"material":2
				}
			]
		},
		{
			"name":"Example_Fence_sections__not_for_use__T_graffiti3_0.001",
			"primitives":[
				{
					"attributes":{
						"POSITION":13,
						"NORMAL":14,
						"TEXCOORD_0":15
					},
					"indices":16,
					"material":3
				}
			]
		},
		{
			"name":"Example_Fence_sections__not_for_use__T_graffiti2_0.001",
			"primitives":[
				{
					"attributes":{
						"POSITION":17,
						"NORMAL":18,
						"TEXCOORD_0":19
					},
					"indices":16,
					"material":4
				}
			]
		},
		{
			"name":"Example_Fence_sections__not_for_use__T_graffiti0_0.001",
			"primitives":[
				{
					"attributes":{
						"POSITION":20,
						"NORMAL":21,
						"TEXCOORD_0":22
					},
					"indices":16,
					"material":5
				}
			]
		},
		{
			"name":"Example_Fence_sections__not_for_use__T_graffiti2_0.002",
			"primitives":[
				{
					"attributes":{
						"POSITION":23,
						"NORMAL":24,
						"TEXCOORD_0":25
					},
					"indices":16,
					"material":6
				}
			]
		},
		{
			"name":"Object_0.001",
			"primitives":[
				{
					"attributes":{
						"POSITION":26,
						"NORMAL":27,
						"TEXCOORD_0":28
					},
					"indices":29,
					"material":7
				}
			]
		}
	],
	"textures":[
		{
			"sampler":0,
			"source":0
		},
		{
			"sampler":0,
			"source":1
		},
		{
			"sampler":0,
			"source":2
		},
		{
			"sampler":0,
			"source":3
		},
		{
			"sampler":0,
			"source":4
		},
		{
			"sampler":0,
			"source":5
		},
		{
			"sampler":0,
			"source":4
		},
		{
			"sampler":0,
			"source":6
		},
		{
			"sampler":0,
			"source":7
		}
	],
	"images":[
		{
			"mimeType":"image/png",
			"name":"Fence_Barbwire_shader_diffuse",
			"uri":"textures/Fence_Barbwire_shader_diffuse.png"
		},
		{
			"mimeType":"image/png",
			"name":"T_graffiti6_baseColor",
			"uri":"textures/T_graffiti6_baseColor.png"
		},
		{
			"mimeType":"image/png",
			"name":"T_graffiti4_baseColor",
			"uri":"textures/T_graffiti4_baseColor.png"
		},
		{
			"mimeType":"image/png",
			"name":"T_graffiti3_baseColor",
			"uri":"textures/T_graffiti3_baseColor.png"
		},
		{
			"mimeType":"image/png",
			"name":"T_graffiti2_baseColor",
			"uri":"textures/T_graffiti2_baseColor.png"
		},
		{
			"mimeType":"image/png",
			"name":"T_graffiti0_baseColor",
			"uri":"textures/T_graffiti0_baseColor.png"
		},
		{
			"mimeType":"image/png",
			"name":"diffuse_1SG_normal",
			"uri":"textures/diffuse_1SG_normal.png"
		},
		{
			"mimeType":"image/jpeg",
			"name":"diffuse_1SG_baseColor",
			"uri":"textures/diffuse_1SG_baseColor.jpg"
		}
	],
	"accessors":[
		{
			"bufferView":0,
			"componentType":5126,
			"count":4,
			"max":[
				-599.9999389648438,
				262.1805419921875,
				369.1884765625
			],
			"min":[
				-699.9961547851562,
				236.35714721679688,
				333.75244140625
			],
			"type":"VEC3"
		},
		{
			"bufferView":1,
			"componentType":5126,
			"count":4,
			"type":"VEC3"
		},
		{
			"bufferView":2,
			"componentType":5126,
			"count":4,
			"type":"VEC2"
		},
		{
			"bufferView":3,
			"componentType":5126,
			"count":4,
			"type":"VEC2"
		},
		{
			"bufferView":4,
			"componentType":5123,
			"count":6,
			"type":"SCALAR"
		},
		{
			"bufferView":5,
			"componentType":5126,
			"count":268,
			"max":[
				192.22332763671875,
				127.92826080322266,
				2.069904088973999
			],
			"min":[
				-193.86810302734375,
				-128.82681274414062,
				-2.624309778213501
			],
			"type":"VEC3"
		},
		{
			"bufferView":6,
			"componentType":5126,
			"count":268,
			"type":"VEC3"
		},
		{
			"bufferView":7,
			"componentType":5126,
			"count":268,
			"type":"VEC2"
		},
		{
			"bufferView":8,
			"componentType":5123,
			"count":600,
			"type":"SCALAR"
		},
		{
			"bufferView":9,
			"componentType":5126,
			"count":948,
			"max":[
				192.2083740234375,
				127.92799377441406,
				3.04864501953125
			],
			"min":[
				-193.8831787109375,
				-128.8270721435547,
				-3.59332275390625
			],
			"type":"VEC3"
		},
		{
			"bufferView":10,
			"componentType":5126,
			"count":948,
			"type":"VEC3"
		},
		{
			"bufferView":11,
			"componentType":5126,
			"count":948,
			"type":"VEC2"
		},
		{
			"bufferView":12,
			"componentType":5123,
			"count":2412,
			"type":"SCALAR"
		},
		{
			"bufferView":13,
			"componentType":5126,
			"count":272,
			"max":[
				191.3167724609375,
				127.93675231933594,
				2.07763671875
			],
			"min":[
				-194.7747802734375,
				-128.8183135986328,
				-2.6165771484375
			],
			"type":"VEC3"
		},
		{
			"bufferView":14,
			"componentType":5126,
			"count":272,
			"type":"VEC3"
		},
		{
			"bufferView":15,
			"componentType":5126,
			"count":272,
			"type":"VEC2"
		},
		{
			"bufferView":16,
			"componentType":5123,
			"count":606,
			"type":"SCALAR"
		},
		{
			"bufferView":17,
			"componentType":5126,
			"count":272,
			"max":[
				193.12637329101562,
				127.92102813720703,
				2.0776445865631104
			],
			"min":[
				-192.96505737304688,
				-128.8340301513672,
				-2.6165692806243896
			],
			"type":"VEC3"
		},
		{
			"bufferView":18,
			"componentType":5126,
			"count":272,
			"type":"VEC3"
		},
		{
			"bufferView":19,
			"componentType":5126,
			"count":272,
			"type":"VEC2"
		},
		{
			"bufferView":20,
			"componentType":5126,
			"count":272,
			"max":[
				2.616943359375,
				127.92105102539062,
				193.126708984375
			],
			"min":[
				-2.077392578125,
				-128.83399963378906,
				-192.96484375
			],
			"type":"VEC3"
		},
		{
			"bufferView":21,
			"componentType":5126,
			"count":272,
			"type":"VEC3"
		},
		{
			"bufferView":22,
			"componentType":5126,
			"count":272,
			"type":"VEC2"
		},
		{
			"bufferView":23,
			"componentType":5126,
			"count":272,
			"max":[
				193.12637329101562,
				127.92102813720703,
				2.0776445865631104
			],
			"min":[
				-192.96505737304688,
				-128.8340301513672,
				-2.6165692806243896
			],
			"type":"VEC3"
		},
		{
			"bufferView":24,
			"componentType":5126,
			"count":272,
			"type":"VEC3"
		},
		{
			"bufferView":25,
			"componentType":5126,
			"count":272,
			"type":"VEC2"
		},
		{
			"bufferView":26,
			"componentType":5126,
			"count":7661,
			"max":[
				1000,
				1000,
				182.72299194335938
			],
			"min":[
				0,
				0,
				5.434000015258789
			],
			"type":"VEC3"
		},
		{
			"bufferView":27,
			"componentType":5126,
			"count":7661,
			"type":"VEC3"
		},
		{
			"bufferView":28,
			"componentType":5126,
			"count":7661,
			"type":"VEC2"
		},
		{
			"bufferView":29,
			"componentType":5123,
			"count":43800,
			"type":"SCALAR"
		}
	],
	"bufferViews":[
		{
			"buffer":0,
			"byteLength":48,
			"byteOffset":0,
			"target":34962
		},
		{
			"buffer":0,
			"byteLength":48,
			"byteOffset":48,
			"target":34962
		},
		{
			"buffer":0,
			"byteLength":32,
			"byteOffset":96,
			"target":34962
		},
		{
			"buffer":0,
			"byteLength":32,
			"byteOffset":128,
			"target":34962
		},
		{
			"buffer":0,
			"byteLength":12,
			"byteOffset":160,
			"target":34963
		},
		{
			"buffer":0,
			"byteLength":3216,
			"byteOffset":172,
			"target":34962
		},
		{
			"buffer":0,
			"byteLength":3216,
			"byteOffset":3388,
			"target":34962
		},
		{
			"buffer":0,
			"byteLength":2144,
			"byteOffset":6604,
			"target":34962
		},
		{
			"buffer":0,
			"byteLength":1200,
			"byteOffset":8748,
			"target":34963
		},
		{
			"buffer":0,
			"byteLength":11376,
			"byteOffset":9948,
			"target":34962
		},
		{
			"buffer":0,
			"byteLength":11376,
			"byteOffset":21324,
			"target":34962
		},
		{
			"buffer":0,
			"byteLength":7584,
			"byteOffset":32700,
			"target":34962
		},
		{
			"buffer":0,
			"byteLength":4824,
			"byteOffset":40284,
			"target":34963
		},
		{
			"buffer":0,
			"byteLength":3264,
			"byteOffset":45108,
			"target":34962
		},
		{
			"buffer":0,
			"byteLength":3264,
			"byteOffset":48372,
			"target":34962
		},
		{
			"buffer":0,
			"byteLength":2176,
			"byteOffset":51636,
			"target":34962
		},
		{
			"buffer":0,
			"byteLength":1212,
			"byteOffset":53812,
			"target":34963
		},
		{
			"buffer":0,
			"byteLength":3264,
			"byteOffset":55024,
			"target":34962
		},
		{
			"buffer":0,
			"byteLength":3264,
			"byteOffset":58288,
			"target":34962
		},
		{
			"buffer":0,
			"byteLength":2176,
			"byteOffset":61552,
			"target":34962
		},
		{
			"buffer":0,
			"byteLength":3264,
			"byteOffset":63728,
			"target":34962
		},
		{
			"buffer":0,
			"byteLength":3264,
			"byteOffset":66992,
			"target":34962
		},
		{
			"buffer":0,
			"byteLength":2176,
			"byteOffset":70256,
			"target":34962
		},
		{
			"buffer":0,
			"byteLength":3264,
			"byteOffset":72432,
			"target":34962
		},
		{
			"buffer":0,
			"byteLength":3264,
			"byteOffset":75696,
			"target":34962
		},
		{
			"buffer":0,
			"byteLength":2176,
			"byteOffset":78960,
			"target":34962
		},
		{
			"buffer":0,
			"byteLength":91932,
			"byteOffset":81136,
			"target":34962
		},
		{
			"buffer":0,
			"byteLength":91932,
			"byteOffset":173068,
			"target":34962
		},
		{
			"buffer":0,
			"byteLength":61288,
			"byteOffset":265000,
			"target":34962
		},
		{
			"buffer":0,
			"byteLength":87600,
			"byteOffset":326288,
			"target":34963
		}
	],
	"samplers":[
		{
			"magFilter":9729,
			"minFilter":9987
		}
	],
	"buffers":[
		{
			"byteLength":413888,
			"uri":"scene.bin"
		}
	]
}
