{
	"asset":{
		"generator":"Khronos glTF Blender I/O v4.2.69",
		"version":"2.0"
	},
	"extensionsUsed":[
		"KHR_lights_punctual"
	],
	"extensionsRequired":[
		"KHR_lights_punctual"
	],
	"extensions":{
		"KHR_lights_punctual":{
			"lights":[
				{
					"color":[
						1,
						0.9533044099807739,
						0.4771607220172882
					],
					"intensity":6.829999847337604,
					"type":"directional",
					"name":"Light"
				}
			]
		}
	},
	"scene":0,
	"scenes":[
		{
			"name":"Scene",
			"nodes":[
				0,
				1
			]
		}
	],
	"nodes":[
		{
			"extensions":{
				"KHR_lights_punctual":{
					"light":0
				}
			},
			"name":"Light",
			"rotation":[
				-0.28416627645492554,
				0.7269423007965088,
				0.34203392267227173,
				0.5232754945755005
			],
			"translation":[
				4.076245307922363,
				5.903861999511719,
				-1.0054539442062378
			]
		},
		{
			"mesh":0,
			"name":"Plane",
			"scale":[
				240,
				240,
				240
			],
			"translation":[
				0,
				-17.60875701904297,
				0
			]
		}
	],
	"meshes":[
		{
			"name":"Plane",
			"primitives":[
				{
					"attributes":{
						"POSITION":0,
						"NORMAL":1,
						"TEXCOORD_0":2
					},
					"indices":3
				}
			]
		}
	],
	"accessors":[
		{
			"bufferView":0,
			"componentType":5126,
			"count":4356,
			"max":[
				1.0495902299880981,
				0.40815863013267517,
				1.0113216638565063
			],
			"min":[
				-1.0400564670562744,
				0.015612905845046043,
				-1.024014949798584
			],
			"type":"VEC3"
		},
		{
			"bufferView":1,
			"componentType":5126,
			"count":4356,
			"type":"VEC3"
		},
		{
			"bufferView":2,
			"componentType":5126,
			"count":4356,
			"type":"VEC2"
		},
		{
			"bufferView":3,
			"componentType":5123,
			"count":6534,
			"type":"SCALAR"
		}
	],
	"bufferViews":[
		{
			"buffer":0,
			"byteLength":52272,
			"byteOffset":0,
			"target":34962
		},
		{
			"buffer":0,
			"byteLength":52272,
			"byteOffset":52272,
			"target":34962
		},
		{
			"buffer":0,
			"byteLength":34848,
			"byteOffset":104544,
			"target":34962
		},
		{
			"buffer":0,
			"byteLength":13068,
			"byteOffset":139392,
			"target":34963
		}
	],
	"buffers":[
		{
			"byteLength":152460,
			"uri":"scene.bin"
		}
	]
}
